<svg width="14" height="22" viewBox="0 0 14 22" fill="none" xmlns="http://www.w3.org/2000/svg">
<g clip-path="url(#clip0)">
<path d="M7.84777 0.597048V6.84765C7.84777 7.30415 7.52234 7.70798 7.07702 7.76066C6.56318 7.81333 6.13499 7.4095 6.13499 6.88276L6.16924 4.96896C6.13499 4.17885 6.06648 1.98412 6.13499 0.877973V0.649721C6.13499 0.140543 6.56318 -0.0525934 7.05989 8.01617e-05C7.52234 0.0527538 7.84777 0.140543 7.84777 0.597048Z" fill="#AAAAAA"/>
<path d="M13.5 21.3679C13.5 21.5786 12.2668 21.7015 10.5883 21.8069C9.54348 21.8771 8.37879 22 7.00856 22C5.75823 22 4.55929 21.8771 3.56588 21.8244C1.69895 21.7191 0.5 21.5962 0.5 21.3679C0.5 21.1397 1.39065 21.0343 3.10343 20.929C3.15481 20.929 3.20619 20.929 3.25758 20.9114C3.41173 20.8939 3.53162 20.7534 3.49736 20.5954C3.42885 20.2618 3.36034 19.9282 3.30896 19.5946C3.22332 19.0327 3.18906 18.4709 3.13768 17.8739C3.0863 17.3472 3.01779 16.7853 3.05204 16.2761C3.05204 16.2235 3.05204 16.1708 3.05204 16.1181L3.03491 15.8547C3.03491 14.1692 3.36034 13.1508 3.85705 12.1676C4.52503 10.8859 5.58696 10.1484 6.99144 10.1484C8.39592 10.1484 9.42358 10.6576 10.0916 11.9393C10.2115 12.1852 10.6054 12.9753 10.6397 13.5722C10.6568 13.8883 10.5198 14.2043 10.0744 14.3448C9.3722 14.5555 9.11528 14.2219 9.01252 13.9058C8.90975 13.5195 8.7556 12.9928 8.61858 12.747C8.22464 12.0798 7.64229 11.9042 7.00856 11.9042C6.61462 11.9042 6.34058 12.1149 6.04941 12.2729C5.68972 12.4661 5.43281 12.7119 5.22727 13.2211C4.9361 13.9409 4.85046 14.8539 4.83333 16.0303C4.83333 16.5746 4.79908 17.2418 4.85046 17.8739C4.90184 18.4358 4.9361 18.9625 5.03887 19.5595C5.09025 19.8579 5.15876 20.1915 5.22727 20.5251C5.26153 20.6656 5.38142 20.7709 5.53557 20.7709C6.03228 20.7534 6.52899 20.7358 7.00856 20.7358C7.5224 20.7358 8.0191 20.7358 8.49868 20.7534C8.6357 20.7534 8.7556 20.6656 8.77273 20.5251C8.82411 20.2267 8.87549 19.9106 8.92688 19.6297C8.94401 19.4366 8.96113 19.3136 8.99539 19.1381C9.09816 18.5587 9.14954 18.4533 9.14954 17.9441C9.14954 17.909 9.13241 17.8739 9.09816 17.8739C8.61858 17.8563 8.19038 17.8037 7.7108 17.8563C7.26548 17.8563 7.05995 17.5403 7.02569 17.0838C6.97431 16.5571 7.2141 16.0479 7.7108 16.0479C8.29315 16.1006 9.01252 16.1006 9.69763 16.0654C10.5198 16.0128 10.9993 16.4166 10.948 17.1365L10.9137 17.4701C10.9137 17.5754 10.8966 17.6632 10.8966 17.7686C10.8794 17.9792 10.8966 18.0495 10.8794 18.1724C10.8109 18.7694 10.7596 18.98 10.6739 19.5419C10.6568 19.7175 10.6568 19.8404 10.6225 19.9808C10.5883 20.2267 10.554 20.4198 10.5198 20.5954C10.4855 20.7358 10.5883 20.8763 10.7424 20.8763C12.4038 20.9641 13.5 21.1572 13.5 21.3679Z" fill="#AAAAAA"/>
<path d="M10.0744 8.33995C9.95449 8.33995 9.7147 8.30483 9.59481 8.25216C9.16661 8.04146 9.06384 7.62008 9.26938 7.18113C9.66332 6.51393 9.95449 5.51313 10.2457 4.96884C10.6739 4.1085 10.8623 3.88025 11.0849 3.24817C11.2905 2.80922 11.7187 2.77411 12.164 2.93213C12.6264 3.09015 12.8148 3.52909 12.6264 3.96804C12.3695 4.68791 12.027 5.21465 11.77 5.79406C11.4275 6.58416 11.1706 7.35671 10.8623 7.84833C10.691 8.16437 10.3827 8.33995 10.0744 8.33995Z" fill="#AAAAAA"/>
<path d="M3.92555 8.41013C3.60013 8.41013 3.39459 8.32234 3.24044 8.0063C3.03491 7.40933 2.62384 6.77725 2.28129 6.03982C1.97299 5.39018 1.76745 4.65275 1.33926 3.86264C1.13372 3.4237 1.39064 3.12521 1.81884 2.91452C2.24703 2.70383 2.70948 2.80917 2.91501 3.24812C3.13768 3.8802 3.44598 4.47717 3.73715 5.10925C4.06258 5.81157 4.35375 6.53144 4.74769 7.2162C4.95322 7.65514 4.83333 7.91851 4.45652 8.23455C4.33662 8.3399 4.04545 8.41013 3.92555 8.41013Z" fill="#AAAAAA"/>
</g>
<defs>
<clipPath id="clip0">
<rect x="0.5" width="13" height="22" fill="white"/>
</clipPath>
</defs>
</svg>
