<svg width="11" height="11" viewBox="0 0 11 11" fill="none" xmlns="http://www.w3.org/2000/svg">
<path d="M7.08219 5.6758C6.98174 5.57534 6.98174 5.42466 7.08219 5.3242L10.8493 1.55708C10.9498 1.45662 11 1.30594 11 1.20548C11 1.10502 10.9498 0.954338 10.8493 0.853881L10.1461 0.150685C10.0457 0.0502283 9.89498 0 9.79452 0C9.64384 0 9.54338 0.0502283 9.44292 0.150685L5.6758 3.91781C5.57534 4.01826 5.42466 4.01826 5.3242 3.91781L1.55708 0.150685C1.45662 0.0502283 1.30594 0 1.20548 0C1.10502 0 0.954338 0.0502283 0.853881 0.150685L0.150685 0.853881C0.0502283 0.954338 0 1.10502 0 1.20548C0 1.30594 0.0502283 1.45662 0.150685 1.55708L3.91781 5.3242C4.01826 5.42466 4.01826 5.57534 3.91781 5.6758L0.150685 9.44292C0.0502283 9.54338 0 9.69406 0 9.79452C0 9.89498 0.0502283 10.0457 0.150685 10.1461L0.853881 10.8493C0.954338 10.9498 1.10502 11 1.20548 11C1.30594 11 1.45662 10.9498 1.55708 10.8493L5.3242 7.08219C5.42466 6.98174 5.57534 6.98174 5.6758 7.08219L9.44292 10.8493C9.54338 10.9498 9.69406 11 9.79452 11C9.89498 11 10.0457 10.9498 10.1461 10.8493L10.8493 10.1461C10.9498 10.0457 11 9.89498 11 9.79452C11 9.69406 10.9498 9.54338 10.8493 9.44292L7.08219 5.6758Z" fill="#F78686"/>
</svg>
