<svg width="40" height="49" viewBox="0 0 40 49" fill="none" xmlns="http://www.w3.org/2000/svg">
<path d="M27.7147 48.2925C27.4351 48.2925 27.1369 48.2737 26.8573 48.2171L4.50873 44.5413C1.58235 44.0512 -0.412054 41.2614 0.0725689 38.3019L5.49661 4.55977C5.98123 1.60027 8.73986 -0.416718 11.6662 0.0733903L33.9962 3.7492C35.4127 3.97541 36.6616 4.76712 37.5004 5.93584C38.3391 7.10456 38.6746 8.55604 38.451 9.98866L33.0269 43.7307C32.5982 46.3886 30.3056 48.2925 27.7147 48.2925ZM10.7902 3.76805C9.9887 3.76805 9.29904 4.35241 9.16856 5.16298L3.74452 38.9051C3.59541 39.8099 4.2105 40.677 5.10519 40.8089L27.4538 44.4848C27.8825 44.5602 28.3298 44.4471 28.6839 44.1832C29.0381 43.9193 29.2804 43.5422 29.355 43.0898L34.779 9.34775C34.8536 8.91419 34.7417 8.46179 34.4808 8.10363C34.2198 7.74547 33.847 7.50042 33.3997 7.42502L11.0511 3.7869C10.9766 3.76805 10.8834 3.76805 10.7902 3.76805Z" fill="black"/>
<path d="M25.4408 15.7002L10.9394 13.3062C10.3429 13.212 9.93288 12.6465 10.0447 12.0433L10.8835 6.87827C10.9767 6.27506 11.5359 5.86035 12.1323 5.97345L26.6337 8.36744C27.2302 8.4617 27.6402 9.0272 27.5284 9.63042L26.6896 14.7954C26.5964 15.3986 26.0186 15.7945 25.4408 15.7002Z" fill="#FED100"/>
</svg>
