<svg width="13" height="13" viewBox="0 0 13 13" fill="none" xmlns="http://www.w3.org/2000/svg">
<g clip-path="url(#clip0)">
<path d="M6.49963 8.90912C6.13619 8.90912 5.83154 9.21377 5.83154 9.57721C5.83154 9.94065 6.13619 10.2453 6.49963 10.2453C6.84971 10.2453 7.16772 9.94065 7.15168 9.59324C7.16772 9.21109 6.86574 8.90912 6.49963 8.90912Z" fill="#FFCF33"/>
<path d="M12.6837 11.2768C13.1032 10.5526 13.1059 9.68947 12.689 8.96793L8.5041 1.72052C8.08989 0.990965 7.34163 0.558044 6.50251 0.558044C5.66339 0.558044 4.91513 0.993638 4.50092 1.71784L0.310674 8.97328C-0.106213 9.70283 -0.103541 10.5713 0.318691 11.2956C0.735577 12.0117 1.48116 12.442 2.31494 12.442H10.6741C11.5105 12.442 12.2614 12.0064 12.6837 11.2768ZM11.7751 10.7531C11.5426 11.1539 11.131 11.3918 10.6714 11.3918H2.31226C1.85797 11.3918 1.4491 11.1593 1.22195 10.7664C0.992123 10.3682 0.989451 9.89257 1.21927 9.49171L5.40952 2.23895C5.63667 1.84077 6.04287 1.60561 6.50251 1.60561C6.95948 1.60561 7.36835 1.84345 7.5955 2.24163L11.7831 9.49439C12.0076 9.88455 12.0049 10.3549 11.7751 10.7531Z" fill="#FFCF33"/>
<path d="M6.33412 4.21918C6.01611 4.31004 5.81836 4.59865 5.81836 4.94873C5.83439 5.15985 5.84776 5.37363 5.86379 5.58475C5.90922 6.38913 5.95465 7.17747 6.00008 7.98185C6.01611 8.25443 6.22723 8.45218 6.49981 8.45218C6.77239 8.45218 6.98618 8.24107 6.99954 7.96581C6.99954 7.80013 6.99954 7.6478 7.01557 7.47944C7.04497 6.96368 7.07704 6.44792 7.10643 5.93215C7.12247 5.59811 7.15186 5.26407 7.1679 4.93002C7.1679 4.80977 7.15186 4.70287 7.10643 4.59598C6.97014 4.29668 6.65213 4.14435 6.33412 4.21918Z" fill="#FFCF33"/>
</g>
<defs>
<clipPath id="clip0">
<rect width="13" height="13" fill="white"/>
</clipPath>
</defs>
</svg>
