<svg width="169" height="32" viewBox="0 0 169 32" fill="none" xmlns="http://www.w3.org/2000/svg">
<g clip-path="url(#clip0)">
<path d="M0.64765 6.44496H5.57223C5.92661 6.44496 6.21988 6.74473 6.21988 7.10695V12.6401C6.21988 12.765 6.31764 12.8649 6.43984 12.8649C6.51316 12.8649 6.57426 12.8275 6.61092 12.7775L10.5579 7.08197C10.839 6.68228 11.2789 6.44496 11.7555 6.44496H17.291C17.7065 6.44496 17.9387 6.93208 17.6821 7.26932L12.0365 14.7385C11.9754 14.8134 11.9754 14.9258 12.0365 15.0008L17.8409 23.1569C18.0853 23.4941 17.8409 23.9688 17.4377 23.9688H11.8288C11.3278 23.9688 10.8634 23.7065 10.5946 23.2818L6.61092 17.0367C6.57426 16.9742 6.50094 16.9368 6.42762 16.9368C6.30542 16.9368 6.20766 17.0367 6.20766 17.1616V23.3068C6.20766 23.669 5.91439 23.9688 5.56001 23.9688H0.64765C0.293276 23.9688 0 23.669 0 23.3068V7.10695C0 6.73224 0.293276 6.44496 0.64765 6.44496Z" fill="#333333"/>
<path d="M20.0038 19.3474C20.0038 15.95 22.6921 14.1514 28.3133 13.3646L31.3071 12.9898V12.203C31.3071 10.9165 30.4762 10.0297 29.0464 10.0297C27.8733 10.0297 27.0057 10.6792 26.7736 11.8033C26.7002 12.153 26.4192 12.4028 26.0648 12.4028H21.4579C21.0302 12.4028 20.6881 12.0156 20.7492 11.5785C21.1891 8.14364 24.354 5.98283 29.1075 5.98283C34.191 5.98283 37.5514 8.49336 37.5514 12.4403V23.2318C37.5514 23.6315 37.2337 23.9563 36.8427 23.9563H32.0159C31.6248 23.9563 31.3071 23.6315 31.3071 23.2318V21.8829H30.9772C30.0118 23.5191 27.9467 24.3685 25.7227 24.3685C22.3255 24.3809 20.0038 22.5449 20.0038 19.3474ZM31.3071 17.4114V16.3622L28.5454 16.7744C26.7125 17.0117 25.9915 17.7236 25.9915 18.7478C25.9915 19.8345 26.7858 20.5464 28.1544 20.5464C30.0118 20.5464 31.3071 19.2225 31.3071 17.4114Z" fill="#333333"/>
<path d="M60.6103 15.2131C60.6103 20.7838 57.5187 24.4184 53.034 24.4184C50.8345 24.4184 49.1726 23.5316 48.0483 21.9329H47.7184V31.0507C47.7184 31.4629 47.3885 31.7877 46.9974 31.7877H42.2317C41.8285 31.7877 41.5107 31.4504 41.5107 31.0507V7.18189C41.5107 6.76971 41.8407 6.44496 42.2317 6.44496H46.9974C47.4007 6.44496 47.7184 6.7822 47.7184 7.18189V8.48087H48.0483C49.1726 6.88212 50.7734 5.99532 52.9974 5.99532C57.5554 5.99532 60.6103 9.56752 60.6103 15.2131ZM47.4496 15.2131C47.4496 17.4239 48.916 19.0851 50.9078 19.0851C52.9363 19.0851 54.366 17.4239 54.366 15.2131C54.366 13.0023 52.9363 11.3411 50.9078 11.3411C48.916 11.3286 47.4496 13.0023 47.4496 15.2131Z" fill="#333333"/>
<path d="M68.3454 11.541H63.7874C63.3108 11.541 62.932 11.1538 62.932 10.6667V7.31928C62.932 6.83216 63.3108 6.44496 63.7874 6.44496H79.1355C79.612 6.44496 79.9909 6.83216 79.9909 7.31928V10.6667C79.9909 11.1538 79.612 11.541 79.1355 11.541H74.6019V23.1069C74.6019 23.5941 74.2231 23.9813 73.7465 23.9813H69.2008C68.7242 23.9813 68.3454 23.5941 68.3454 23.1069V11.541Z" fill="#333333"/>
<path d="M121.343 17.5488C120.341 19.0101 118.19 19.9594 116.088 19.9594C112.532 19.9594 110.076 17.1366 110.076 13.1272V7.28181C110.076 6.81967 110.443 6.44496 110.895 6.44496H115.489C115.942 6.44496 116.308 6.81967 116.308 7.28181V12.178C116.308 13.8142 117.176 14.8634 118.605 14.8634C119.607 14.8634 120.597 14.3513 121.062 13.6393V7.28181C121.062 6.81967 121.428 6.44496 121.88 6.44496H126.475C126.927 6.44496 127.294 6.81967 127.294 7.28181V23.1319C127.294 23.5941 126.927 23.9688 126.475 23.9688H122.137C121.685 23.9688 121.318 23.5941 121.318 23.1319V17.5488H121.343Z" fill="#333333"/>
<path d="M132.17 6.44496H136.935C137.339 6.44496 137.656 6.7822 137.656 7.18189V12.8649H137.986L142.068 6.98204C142.3 6.64481 142.691 6.43247 143.094 6.43247H148.703C149.131 6.43247 149.375 6.93208 149.106 7.28181L143.375 14.8509L149.265 23.1194C149.509 23.4692 149.265 23.9563 148.85 23.9563H143.167C142.74 23.9563 142.336 23.7315 142.104 23.3692L137.986 16.9243H137.656V23.2318C137.656 23.644 137.326 23.9688 136.935 23.9688H132.17C131.766 23.9688 131.449 23.6315 131.449 23.2318V7.18189C131.436 6.76971 131.766 6.44496 132.17 6.44496Z" fill="#333333"/>
<path d="M151.44 19.3474C151.44 15.95 154.129 14.1514 159.75 13.3646L162.744 12.9899V12.203C162.744 10.9165 161.913 10.0297 160.483 10.0297C159.334 10.0297 158.479 10.6542 158.222 11.7408C158.137 12.128 157.794 12.4028 157.403 12.4028H153.053C152.528 12.4028 152.137 11.9282 152.222 11.3911C152.748 8.0687 155.888 5.98283 160.556 5.98283C165.64 5.98283 169 8.49336 169 12.4403V23.107C169 23.5816 168.621 23.9688 168.157 23.9688H163.599C163.135 23.9688 162.756 23.5816 162.756 23.107V21.8954H162.426C161.46 23.5316 159.395 24.381 157.171 24.381C153.774 24.381 151.44 22.5449 151.44 19.3474ZM162.744 17.4114V16.3622L159.982 16.7744C158.149 17.0117 157.428 17.7237 157.428 18.7479C157.428 19.8345 158.222 20.5464 159.591 20.5464C161.448 20.5464 162.744 19.2225 162.744 17.4114Z" fill="#333333"/>
<path d="M99.506 32C99.3227 32 99.1272 31.9875 98.9439 31.9501L84.2923 29.5145C82.3738 29.1897 81.0663 27.3412 81.384 25.3802L84.94 3.02264C85.2577 1.06167 87.0662 -0.274785 88.9847 0.0499617L103.624 2.48556C104.553 2.63544 105.371 3.16003 105.921 3.93443C106.471 4.70882 106.691 5.67057 106.545 6.61983L102.989 28.9774C102.708 30.7385 101.205 32 99.506 32ZM88.4104 2.49805C87.8849 2.49805 87.4328 2.88525 87.3473 3.42233L83.7913 25.7799C83.6935 26.3794 84.0968 26.954 84.6834 27.0414L99.3349 29.477C99.616 29.5269 99.9092 29.452 100.141 29.2771C100.374 29.1023 100.532 28.8525 100.581 28.5527L104.137 6.19516C104.186 5.90789 104.113 5.60812 103.942 5.37081C103.771 5.13349 103.526 4.97112 103.233 4.92116L88.5815 2.51054C88.5326 2.49805 88.4715 2.49805 88.4104 2.49805Z" fill="#333333"/>
<path d="M98.0152 10.4044L88.5082 8.81811C88.1171 8.75566 87.8483 8.38095 87.9216 7.98127L88.4715 4.55894C88.5326 4.15925 88.8992 3.88447 89.2902 3.95941L98.7972 5.54567C99.1883 5.60812 99.4571 5.98283 99.3838 6.38251L98.8339 9.80484C98.7728 10.2045 98.394 10.4668 98.0152 10.4044Z" fill="#FED100"/>
</g>
<defs>
<clipPath id="clip0">
<rect width="169" height="32" fill="white"/>
</clipPath>
</defs>
</svg>
