<svg width="22" height="34" viewBox="0 0 22 34" fill="none" xmlns="http://www.w3.org/2000/svg">
<g clip-path="url(#clip0)">
<path d="M19 29.9C18.8 29.9 18.6 29.9 18.4 29.9L3.6 29.8C1.7 29.8 0.1 28.2 0.1 26.2L0 3.6C0 1.6 1.6 0 3.5 0L18.3 0.1C19.2 0.1 20.1 0.5 20.8 1.2C21.5 1.9 21.8 2.8 21.8 3.8L22 26.3C22 28.1 20.7 29.6 19 29.9ZM3.3 2.5C2.8 2.6 2.4 3 2.4 3.6L2.5 26.2C2.5 26.8 3 27.3 3.6 27.3L18.5 27.4C18.8 27.4 19.1 27.3 19.3 27.1C19.5 26.9 19.6 26.6 19.6 26.3L19.5 3.7C19.5 3.4 19.4 3.1 19.2 2.9C19 2.7 18.7 2.6 18.4 2.6H3.6C3.5 2.5 3.4 2.5 3.3 2.5Z" fill="#333333"/>
<path d="M11.5 33.4C10.5 33.9 9.2 33.9 8.3 33.2C7.5 32.5 7 31.4 7 30.3L6.9 7.6C6.9 5.6 8.6 4.9 10.4 4L17.3 0.5C18.3 -2.68221e-07 19.6 -2.38419e-07 20.5 0.7C20.6 0.8 20.8 0.9 20.9 1C21.6 1.7 21.9 2.6 21.9 3.6L22 26.3C22 28.1 22.2 28.4 20.4 29.3" fill="#333333"/>
<path d="M11.2 15.9C11 16 10.7 16 10.4 15.8C10.2 15.6 10 15.4 10 15.1V9.4C10 8.9 10.4 8.7 10.9 8.5L12.6 7.6C12.9 7.5 13.2 7.5 13.4 7.7L13.5 7.8C13.7 8 13.8 8.2 13.8 8.4V14.1C13.8 14.6 13.9 14.6 13.4 14.9" fill="#FED100"/>
</g>
<defs>
<clipPath id="clip0">
<rect width="22" height="33.7" fill="white"/>
</clipPath>
</defs>
</svg>
