<svg width="14" height="14" viewBox="0 0 14 14" fill="none" xmlns="http://www.w3.org/2000/svg">
<path d="M11.2209 0.476822C11.8566 -0.15894 12.8874 -0.15894 13.5232 0.476822C14.1589 1.11258 14.1589 2.14336 13.5232 2.77912L2.77912 13.5232C2.14336 14.1589 1.11258 14.1589 0.476822 13.5232C-0.158941 12.8874 -0.15894 11.8566 0.476822 11.2209L11.2209 0.476822Z" fill="white"/>
<path d="M13.5232 11.2209C14.1589 11.8566 14.1589 12.8874 13.5232 13.5232C12.8874 14.1589 11.8566 14.1589 11.2209 13.5232L0.476823 2.77912C-0.15894 2.14336 -0.15894 1.11258 0.476822 0.476822C1.11258 -0.158941 2.14336 -0.15894 2.77912 0.476822L13.5232 11.2209Z" fill="white"/>
</svg>
