<svg width="637" height="126" viewBox="0 0 637 126" fill="none" xmlns="http://www.w3.org/2000/svg">
<path d="M306.542 63.6296C304.554 67.607 305.391 75.7712 306.542 78.5973M333.756 42.277C332.919 47.0918 337.507 52.8784 338.048 59.9661C338.748 69.1369 340.037 76.2945 334.908 83.3074M370.57 6.54634C381.186 20.2324 391.596 16.1392 386.687 28.1627C380.355 43.668 336.653 20.9158 340.512 39.0348C344.013 55.4729 378.002 32.4247 382.466 48.6279C386.355 62.7478 368.049 66.5587 361.105 79.4536C356.516 87.9754 355.105 101.71 350.997 102.083M404.345 16.3716C401.862 18.8547 400.847 17.9168 400.63 19.9955C400.386 22.3406 403.864 54.3035 393.076 70.9996C387.035 80.3481 376.395 88.3454 372.638 90.8644M416.355 27.0364C414.364 34.5433 411.759 70.8522 412.985 75.9079C414.211 80.9636 414.211 82.9552 416.355 82.4956C418.5 82.036 433.667 70.7078 434.28 65.337C434.893 59.9661 433.237 56.999 432.288 51.702C431.155 45.3717 431.522 40.365 428.765 35.6157C426.559 31.8163 425.292 28.3131 424.935 27.0364M459.865 27.0364C459.558 39.0348 454.564 47.3903 453.89 60.7409C453.102 76.3484 450.366 88.9301 457.72 100.573M505.672 27.0364C504.447 35.6157 510.422 57.5236 506.438 67.1754C503.252 74.8968 499.289 85.1 497.706 89.2365M561.591 2.06446C560.519 7.88615 544.707 29.9239 547.803 48.6379C549.991 61.8644 559.599 76.4696 563.583 79.1252M565.115 2.98367C566.647 11.4098 559.984 29.3099 567.106 43.4291C572.537 54.194 585.337 63.4985 588.861 65.337M625.63 1.14525C623.638 5.58811 617.51 10.9502 609.85 14.4738C602.19 17.9975 579.516 25.3512 595.296 46.6463C607.919 63.6824 610.258 68.5542 609.85 68.8606" stroke="#FFF8D6"/>
<path fill-rule="evenodd" clip-rule="evenodd" d="M562.554 72.5462C563.885 70.5183 566.115 68.2333 567.641 68.7896C569.167 69.346 575.535 86.7179 576.885 84.6283C578.235 82.5386 571.682 66.8112 572.33 66.0643C572.977 65.3175 577.992 62.424 578.804 63.2969C579.615 64.1698 582.466 74.2146 583.871 71.529C585.275 68.8434 583.341 61.6819 584.422 61.0735C585.503 60.4652 587.817 58.3433 589.162 59.2508C590.508 60.1583 592.432 73.3141 593.913 70.176C595.394 67.0378 592.12 59.3793 594.689 57.9523C597.259 56.5254 600.528 55.2542 601.692 56.5129C602.857 57.7715 601.445 63.2491 603.646 61.9087C605.847 60.5683 603.03 56.8046 605.506 56.0973C607.981 55.3899 614.463 55.51 618.286 55.3475C618.875 56.5584 619.883 59.8115 619.201 63.1371C618.348 67.2941 619.236 71.1221 617.656 71.1618C616.075 71.2014 609.777 69.7995 608.308 72.2601C606.839 74.7207 615.722 74.2233 616.231 75.613C616.741 77.0028 615.458 84.6342 614.016 84.2411C612.574 83.848 608.177 81.8278 606.758 83.2819C605.339 84.736 612.651 85.0992 612.829 86.2467C613.007 87.3941 612.135 95.0206 610.653 94.7511C609.172 94.4816 604.29 91.4203 603.037 92.9956C601.783 94.5709 610.253 95.577 609.348 97.1276C608.443 98.6781 609.311 102.568 606.002 102.259C602.693 101.95 595.846 97.5782 593.88 99.6753C591.914 101.772 598.808 104.932 602.674 105.419C605.766 105.809 605.906 107.885 605.589 108.874L576.379 100.482L562.554 72.5462ZM586.778 78.6975C586.71 81.4867 584.29 80.5671 582.558 77.347C582.264 76.6502 582.089 75.1161 583.742 74.5546C585.808 73.8527 586.847 75.9083 586.778 78.6975ZM598.867 91.6615C603.662 94.2462 600.505 88.6632 596.968 87.1439C596.646 87.0407 595.74 86.9544 594.694 87.4342C593.388 88.0339 594.072 89.0768 598.867 91.6615Z" fill="#333333"/>
<path fill-rule="evenodd" clip-rule="evenodd" d="M561.779 72.2585C563.037 70.1854 565.187 67.8239 566.731 68.3267C568.275 68.8295 575.246 85.9686 576.522 83.8331C577.799 81.6976 570.7 66.2084 571.322 65.4394C571.943 64.6704 576.854 61.6037 577.695 62.4477C578.536 63.2918 581.737 73.231 583.046 70.498C584.356 67.765 582.174 60.6754 583.232 60.0297C584.291 59.384 586.53 57.1826 587.906 58.0426C589.282 58.9026 591.665 71.9833 593.036 68.7953C594.406 65.6073 590.867 58.0678 593.385 56.5521C595.902 55.0363 599.125 53.6518 600.333 54.869C601.541 56.0863 600.321 61.6098 602.474 60.1934C604.627 58.777 601.68 55.1139 604.13 54.3206C606.579 53.5273 613.061 53.4211 616.876 53.1253C617.507 54.3149 618.628 57.5308 618.062 60.8782C617.355 65.0625 618.376 68.8572 616.798 68.9519C615.22 69.0467 608.876 67.8654 607.494 70.3758C606.112 72.8861 614.972 72.0791 615.53 73.4502C616.088 74.8213 615.072 82.4929 613.617 82.1503C612.162 81.8077 607.698 79.9422 606.33 81.445C604.962 82.9477 612.283 83.0556 612.501 84.1961C612.719 85.3366 612.113 92.9889 610.623 92.7712C609.133 92.5536 604.148 89.6646 602.95 91.2826C601.752 92.9007 610.252 93.6107 609.401 95.1919C608.551 96.773 609.554 100.63 606.237 100.437C602.919 100.244 595.923 96.1134 594.032 98.2778C592.14 100.442 599.141 103.36 603.021 103.712C606.124 103.993 606.337 106.063 606.055 107.062L576.57 99.6949L561.779 72.2585ZM586.202 77.5607C586.231 80.3506 583.781 79.5159 581.937 76.3583C581.619 75.6722 581.391 74.1451 583.023 73.5263C585.064 72.7527 586.174 74.7708 586.202 77.5607ZM598.736 90.0949C603.619 92.5107 600.268 87.0413 596.681 85.6463C596.355 85.5544 595.446 85.4998 594.418 86.0157C593.134 86.6607 593.854 87.6791 598.736 90.0949Z" fill="#FED829"/>
<path fill-rule="evenodd" clip-rule="evenodd" d="M611.951 56.6999C613.439 55.5412 615.117 54.2233 616.445 53.1523H616.875L617.169 53.8003C615.821 54.8871 614.033 56.3466 612.536 57.5128C606.291 62.3781 599.957 70.0915 593.279 77.9647C591.514 80.0462 590.037 82.4284 588.67 84.6343C588.471 84.9548 588.275 85.2716 588.08 85.5832C587.318 86.8035 586.581 87.9476 585.843 88.9027C585.109 89.8536 584.349 90.6517 583.531 91.1514L583.01 90.2981C583.673 89.8927 584.344 89.2075 585.052 88.2915C585.756 87.3796 586.471 86.273 587.232 85.0535C587.424 84.7463 587.619 84.4322 587.817 84.1128C589.18 81.9119 590.699 79.4607 592.517 77.3179C599.268 69.3578 605.702 61.5675 611.951 56.6999Z" fill="white"/>
<path d="M612.5 107C628.9 107 635.667 119 637 125H160C171.333 110.833 195.3 81.2 200.5 76C207 69.5 213 69.5 220.5 69.5H289.5C319.5 69.5 331.5 93.5 336 93.5H353C366 93.5 372.5 82.5 377.5 82.5H394.5C398.5 82.5 401.5 87 405.5 96C409.5 105 419 108 427 108C435 108 441 102 443.5 99.5C446 97 461 81.5 465 77C469 72.5 476 69 484 69H557C570.5 69 571.5 73.5 573 75C574.5 76.5 588 97 590.5 100.5C593 104 592 107 612.5 107Z" fill="#FFF6CC"/>
<path d="M183.917 87.3205C194.643 88.1785 199.235 84.0744 205.797 83.6023C217.187 82.7829 218.25 84.7333 225.103 94.8998M225.103 94.8998C228.877 100.498 228.572 104.459 231.825 110.058C234.323 114.359 237.831 118.019 239.118 120.498M225.103 94.8998C218.452 85.0316 209.659 68.4722 207.943 56.0021C206.226 43.5319 206.56 33.6454 206.942 30.2609M243.31 115.082C239.118 100.685 238.122 93.91 239.922 93.8041C241.722 93.6983 245.321 103.543 244.898 107.884C244.559 111.356 244.262 115.753 244.157 117.517M253.896 69.5C253.896 70.9413 260.565 79.8303 263.953 80.6772C267.34 81.5241 269.987 84.3303 269.881 87.3205C269.775 90.3107 269.987 103.649 274.221 109.366C278.456 115.082 280.361 114.235 280.573 116.67C280.785 119.105 280.467 120.498 283.961 120.498C287.454 120.498 292.641 120.905 293.382 118.788C294.123 116.67 292.112 112.753 289.148 105.767C286.184 98.7796 282.479 89.0403 282.902 80.0421C283.241 72.8434 284.008 70.1041 284.008 69.5M300.51 100.26C301.03 93.8041 302.33 93.5895 300.51 92.0301C298.691 90.4708 288.382 87.6987 295.313 82.5009C302.243 77.3032 307.008 78.2762 308.22 80.0421C309.433 81.8079 311.685 86.6591 311.166 88.9115C310.646 91.1638 318.443 94.3691 319.309 88.1318C320.002 83.142 315.323 79.5079 316.636 77.3749M363.976 90.6834C364.027 90.7796 364.708 91.3746 365.191 91.8008C371.886 97.7006 385.192 98.3829 386.012 101.214C387.176 105.237 399.56 116.796 411.313 121.54C414.212 122.71 419.391 122.641 421.979 123.226C423.642 123.602 424 124.022 424 125M462.5 125C462.5 125 462.5 119.2 454.5 118C444.5 116.5 415 114 412 110.5C409 107 411.5 109.5 412 102C412.5 94.5 412 84.8691 409 74.1846C406.6 65.6369 399.667 53.5 396.5 48.5M378.709 82.5C378.709 83.5592 384.7 88.2 391.5 89C398.3 89.8 401.113 89.5234 402.039 89.0039M394 102.5C393.667 100 393.7 95 396.5 95C400 95 406 97.9289 405.5 101.214M450.448 92.4005C452.648 94.6035 460.1 97.5 462.5 101.5C465.5 106.5 467.5 113.5 474.5 117.5C481.5 121.5 494 127.5 494 122C494 117.6 457.551 87.3555 456.358 86.2167M464.298 77.8505C468.131 81.1838 473.053 87.6382 479 94C489.655 105.398 491.399 122.274 507 122.5C514.657 122.611 520.494 121.795 525.5 116C535.396 104.545 501.662 108.153 492 96.5C487.254 90.7763 479.741 86.9044 482.5 80C485.629 72.1697 495.684 76.6019 504 78C517.835 80.326 533.5 98.5 533.5 98.5C533.5 98.5 544 113 554 112.5M552.985 69C552.95 74.6567 578.4 104.2 584 105" stroke="#FFE880"/>
<path d="M258 125H0C4.83333 120 15.4 109.1 19 105.5C23.5 101 28.5 99.5 33.5 99.5H94C106 99.5 113.5 81.5 123.5 81.5H159.5C174 81.5 177.691 82.0735 187 88C195.415 93.3574 194.731 102.745 203.5 107.5C211.826 112.015 218.028 111 227.5 111H227.62C239.508 111 240.643 111 247.5 115C252.391 117.853 255.5 122.167 258 125Z" fill="#FED829"/>
<path d="M222.549 67.8277C226.471 64.7019 231.856 65.1045 234.058 65.6965C232.4 67.5672 228.545 71.8059 226.386 73.795C223.686 76.2814 216.227 77.276 215.659 76.1393C215.09 75.0027 217.648 71.7349 222.549 67.8277Z" fill="#333333"/>
<path d="M210.54 56.9457C211.667 53.9209 217.895 50.4215 221.75 50.3622C221.473 51.3903 220.445 54.0039 218.547 56.234C216.649 58.4641 212.063 59.8124 210.007 60.2078C209.809 60.1287 209.639 59.3656 210.54 56.9457Z" fill="#333333"/>
<path d="M217.178 40.2176C213.56 39.1697 206.526 37.9993 207.332 41.7003C208.139 45.4013 214.232 42.2539 217.178 40.2176Z" fill="#333333"/>
<path d="M205.569 26.4362C205.728 23.8943 208.574 21.2465 209.977 20.2403C210.295 21.6702 210.804 25.062 210.295 27.1909C209.66 29.8519 206.84 32.3541 206.403 32.1952C205.966 32.0364 205.37 29.6136 205.569 26.4362Z" fill="#333333"/>
<path d="M203.217 39.3965C201.122 37.8777 198.315 38.2354 196.682 38.3073C197.347 39.5996 199.005 42.3892 200.312 43.2088C201.946 44.2333 205.42 44.7746 205.758 42.6642C206.014 41.0679 204.526 40.3455 203.217 39.3965Z" fill="#333333"/>
<path d="M201.754 55.3173C204.883 56.3077 207.316 59.2737 208.141 60.6329C207.63 61.1059 204.794 61.5071 197.545 59.3283C188.483 56.6048 197.842 54.0794 201.754 55.3173Z" fill="#333333"/>
<path d="M204.011 74.9791C200.091 74.903 196.416 78.0871 195.068 79.6887C196.947 80.3706 201.367 81.7438 204.011 81.7819C207.316 81.8294 213.954 79.1654 213.954 77.7858C213.954 76.4063 208.911 75.0742 204.011 74.9791Z" fill="#333333"/>
<path d="M396.492 44.8548C395.728 42.5071 391.032 40.7372 388.78 40.1458C389.463 41.7155 391.442 45.4827 393.899 47.9942C396.97 51.1336 397.448 47.7895 396.492 44.8548Z" fill="#FED829"/>
<path d="M409.876 49.1974C406.488 50.6428 400.569 54.0187 404.001 55.9583C407.433 57.898 409.348 52.2592 409.876 49.1974Z" fill="#FED829"/>
<path d="M398.034 57.8538C396.012 58.0064 394.104 58.5406 391.014 61.7457C393.1 61.822 397.798 61.8373 399.904 61.2878C402.537 60.601 400.057 57.7011 398.034 57.8538Z" fill="#FED829"/>
<path d="M414.577 65.807C411.945 68.1635 411.177 72.1196 411.122 73.803C411.537 73.803 413.722 72.572 419.142 67.648C425.917 61.493 417.866 62.8614 414.577 65.807Z" fill="#FED829"/>
<path d="M400.728 71.5725C403.911 71.7134 406.656 74.1667 407.63 75.3758C406.245 76.127 402.608 77.5521 399.143 77.2422C395.678 76.9323 393.168 74.5541 392.346 73.4037C393.814 72.7346 397.544 71.4316 400.728 71.5725Z" fill="#FED829"/>
<path d="M419.962 85.085C416.098 86.5602 414.225 90.5293 413.771 92.3294C414.152 92.7245 417.468 92.4435 427.689 88.1584C440.466 82.8019 424.791 83.241 419.962 85.085Z" fill="#FED829"/>
<path d="M400.728 89.903C408.499 89.7014 410.534 91.6666 410.58 92.6745C410.076 92.9894 408.055 93.8586 404.001 94.816C399.947 95.7734 393.177 93.5572 390.298 92.3294C390.537 91.6046 392.956 90.1046 400.728 89.903Z" fill="#FED829"/>
<path d="M426 118H282C290.667 108.167 308.5 88 310.5 86C313 83.5 316 81 320 81H349C356 81 367.5 102 372 102C376.5 102 380.5 97.5 384 97.5H403.5C406.5 97.5 411 102 413.5 105C415.5 107.4 422.667 114.667 426 118Z" fill="#FFE880"/>
<path fill-rule="evenodd" clip-rule="evenodd" d="M591.482 124.313C591.936 123.078 592.869 121.347 592.711 120.301C592.514 118.994 587.581 122.503 586.804 120.508C586.026 118.513 591.196 116.007 590.9 114.753C590.603 113.5 588.838 109.265 587.128 109.527C585.418 109.789 580.816 116.976 579.983 114.831C579.317 113.116 582.996 108.946 584.919 107.076C582.839 104.925 578.387 100.682 577.223 100.925C575.767 101.229 570.146 111.08 569.386 108.124C568.625 105.168 573.776 99.2254 573.804 98.5673C573.832 97.9092 571.055 95.1247 570.354 95.3008C569.652 95.477 565.923 100.157 565.287 99.3197C564.651 98.4825 568.235 95.4254 567.632 94.0815C567.029 92.7377 563.037 89.8945 562.198 90.4799C561.359 91.0653 558.555 96.1678 558.3 94.6602C558.045 93.1525 560.319 90.2422 559.628 89.2553C558.936 88.2684 554.34 85.4969 553.707 86.1762C553.073 86.8555 552 93.768 550.434 92.3567C548.869 90.9454 551.583 86.1493 550.577 84.87C549.572 83.5908 547.777 82.8447 545.386 82.4226C543.474 82.085 539.474 81.517 537.713 81.2751C537.325 83.2096 536.64 87.6114 536.998 89.7423L537.001 89.7628C537.445 92.408 537.512 92.808 538.62 92.7693C539.731 92.7305 543.085 94.686 541.377 94.9984C539.669 95.3108 536.498 94.2588 536.475 96.4839C536.451 98.709 535.88 101.155 537.415 101.708C538.951 102.261 550.172 102.223 545.216 103.61C540.26 104.996 537.357 104.39 537.323 106.312C537.289 108.234 536.912 109.005 537.692 109.635C538.472 110.265 546.086 109.696 545.495 111.587C544.904 113.478 538.923 113.03 538.565 114.357C538.207 115.684 538.029 119.279 539.56 119.681C541.09 120.082 552.602 116.799 554.839 118.591C557.075 120.383 541.657 121.832 541.152 123.315C540.749 124.502 541.399 124.313 541.399 124.313H550.632C550.632 124.313 550.736 124.153 551.538 123.964C552.541 123.726 557.762 123.139 556.489 124.313H591.482ZM551.994 113.089C554.357 112.686 551.698 110.157 550.381 110.127C549.295 110.102 548.248 111.123 548.391 112.071C548.57 113.257 549.63 113.491 551.994 113.089ZM563.296 100.21C561.667 99.3978 559.391 101.575 560.111 103.09C560.587 104.092 561.136 104.501 562.681 104.301C564.611 104.051 564.925 101.022 563.296 100.21ZM574.021 112.685C573.321 112.276 569.776 114.271 570.169 116.295C570.316 117.056 569.987 117.239 571.147 118.021C572.597 118.999 573.004 117.614 574.142 116.156C575.28 114.699 574.721 113.094 574.021 112.685Z" fill="#333333"/>
<path fill-rule="evenodd" clip-rule="evenodd" d="M592.708 125C593.205 123.781 594.169 121.082 594.047 120.031C593.896 118.717 588.844 122.052 588.137 120.031C587.429 118.01 592.683 115.686 592.431 114.423C592.178 113.16 590.562 108.866 588.844 109.068C587.126 109.27 582.276 116.292 581.518 114.12C580.912 112.382 584.735 108.344 586.722 106.542C584.718 104.319 580.417 99.9235 579.245 100.126C577.78 100.378 571.818 110.028 571.162 107.047C570.505 104.066 575.86 98.3069 575.91 97.6501C575.961 96.9933 573.283 94.1136 572.576 94.2652C571.869 94.4168 567.979 98.9636 567.372 98.1048C566.766 97.2459 570.454 94.3157 569.898 92.9516C569.343 91.5876 565.453 88.6068 564.594 89.1626C563.735 89.7183 560.754 94.7199 560.552 93.2043C560.35 91.6886 562.725 88.8595 562.068 87.849C561.411 86.8386 556.915 83.9084 556.258 84.5652C555.601 85.2219 554.288 92.0928 552.772 90.6277C551.256 89.1626 554.136 84.4641 553.176 83.1506C552.216 81.837 550.448 81.0287 548.073 80.5235C546.174 80.1193 542.196 79.412 540.445 79.1089C539.99 81.0287 539.151 85.4038 539.434 87.5459L539.437 87.5665C539.788 90.2256 539.841 90.6277 540.95 90.6277C542.061 90.6277 545.345 92.699 543.628 92.9516C541.91 93.2043 538.778 92.0423 538.677 94.2652C538.576 96.4881 537.919 98.9131 539.434 99.5194C540.95 100.126 552.166 100.479 547.164 101.692C542.162 102.904 539.283 102.197 539.182 104.117C539.081 106.037 538.677 106.794 539.434 107.451C540.192 108.108 547.821 107.805 547.164 109.674C546.507 111.543 540.546 110.887 540.142 112.2C539.737 113.514 539.434 117.101 540.95 117.555C542.466 118.01 554.085 115.13 556.258 117C558.43 118.869 542.971 119.778 542.415 121.243C541.971 122.415 542.23 124.236 542.415 125H550.701C551.054 124.152 551.964 122.415 552.772 122.254C553.782 122.052 558.885 122.741 557.571 123.87C556.521 124.774 556.696 125 556.915 125H592.708ZM553.606 111.401C555.983 111.082 553.413 108.462 552.098 108.385C551.014 108.322 549.932 109.306 550.042 110.259C550.179 111.45 551.23 111.721 553.606 111.401ZM565.352 98.9248C563.752 98.0565 561.401 100.153 562.068 101.692C562.509 102.71 563.043 103.139 564.594 102.992C566.532 102.809 566.951 99.7932 565.352 98.9248ZM575.635 111.767C574.949 111.334 571.337 113.204 571.659 115.24C571.78 116.006 571.444 116.177 572.576 117C573.991 118.028 574.446 116.657 575.635 115.24C576.823 113.824 576.32 112.2 575.635 111.767Z" fill="#FFDE46"/>
<path fill-rule="evenodd" clip-rule="evenodd" d="M562.581 111.773C554.477 99.356 547.157 89.2365 540.492 80.4062L540.621 79.8125L541.441 79.9375C548.11 88.7739 555.296 98.781 563.419 111.227C565.605 114.576 568.706 119.453 570.425 122.237C570.788 122.825 571.078 123.157 571.319 123.434C571.38 123.504 571.438 123.571 571.494 123.638C571.632 123.803 571.768 123.985 571.863 124.216C571.96 124.451 572 124.703 572 125H571C571 124.797 570.973 124.681 570.938 124.596C570.902 124.507 570.843 124.418 570.726 124.278C570.682 124.225 570.632 124.168 570.576 124.104C570.333 123.826 569.985 123.427 569.574 122.763C567.861 119.986 564.763 115.117 562.581 111.773Z" fill="white"/>
<path fill-rule="evenodd" clip-rule="evenodd" d="M45.7655 125C40.174 113.198 49.4405 100.361 54.7727 95.7112C56.8218 99.1182 61.2371 105.443 62.5061 103.486C63.7752 101.529 61.6136 95.6166 60.3741 92.905C61.7532 91.619 65.1249 88.6682 67.5792 87.153C70.0336 85.6377 74.025 84.0427 75.714 83.4346C79.3007 90.5641 86.8878 104.437 88.5426 102.894C90.1975 101.351 84.0924 87.0626 80.8331 80.1112C82.7176 78.6761 86.7901 75.7165 88.0033 75.3586C89.5198 74.9112 93.6157 86.5613 95.1497 85.6142C96.6837 84.6672 95.6209 72.1225 97.672 70.6932L101.24 68.8165C102.725 74.0382 106.113 83.9959 107.782 82.0529C109.868 79.6242 105.29 67.457 108.34 66.0627C111.391 64.6683 114.424 63.7736 115.423 63.8085C116.422 63.8434 117.16 71.3737 119.194 70.4441C121.227 69.5145 119.403 64.4478 120.955 63.001C122.506 61.5543 133.087 59.4223 134.586 59.4746C136.085 59.527 138.066 60.0965 138.409 64.6112C138.683 68.2229 138.496 76.4547 138.368 80.1192C134.876 79.8305 127.771 79.8492 127.287 82.2338C126.683 85.2145 136.229 84.0469 137.194 85.0812C138.158 86.1155 136.31 96.0571 135.294 96.5219C134.277 96.9867 126.905 93.6668 126.412 95.4581C125.919 97.2494 134.373 98.0614 134.095 101.109C133.816 104.156 134.226 109.682 132.409 109.92C130.592 110.158 121.782 105.975 122.509 108.584C123.236 111.193 130.284 112.817 130.458 115.235C130.632 117.652 129.71 120.634 128.542 120.766C127.375 120.897 114.656 115.575 112.957 118.234C111.258 120.893 122.769 122.491 123.603 123.509C124.269 124.323 124.589 124.833 124.665 125H105.126C103.466 123.583 101.304 122.534 99.4911 123.509C97.6779 124.483 98.3749 125 98.3749 125H45.7655ZM72.0176 115.065C68.3754 109.977 64.1513 115.018 69.3179 118.905C74.4845 122.791 72.5732 123.322 74.8461 122.233C77.5604 120.934 75.6599 120.152 72.0176 115.065ZM74.3674 97.8695C73.2772 98.0684 74.5013 102.609 76.2392 104.817C77.504 106.424 79.4465 107.525 80.519 107.834C81.8596 108.219 80.2514 103.864 78.7316 99.8838C77.2119 95.9039 75.4576 97.6706 74.3674 97.8695ZM96.2365 89.1209C95.6149 89.4715 94.9368 92.5423 96.0606 94.1586C97.1847 95.7754 99.4281 96.023 100.846 95.7475C102.618 95.4032 100.269 92.8838 99.2661 90.5807C98.2632 88.2776 96.8581 88.7702 96.2365 89.1209ZM120.088 107.628C121.523 107.412 119.726 104.695 115.786 102.567C115.352 102.308 113.834 101.079 112.829 101.733C112.029 102.254 112.07 103.076 111.986 104.027C111.679 107.476 118.654 107.843 120.088 107.628Z" fill="#333333"/>
<path fill-rule="evenodd" clip-rule="evenodd" d="M44.5 125C38.5 113.4 47.3333 100.833 52.5 96C54.6667 99.3333 59.3 105.5 60.5 103.5C61.7 101.5 59.3333 95.6667 58 93C59.3333 91.6667 62.6 88.6 65 87C67.4 85.4 71.3333 83.6667 73 83C76.8333 90 84.9 103.6 86.5 102C88.1 100.4 81.5 86.3333 78 79.5C79.8333 78 83.8 74.9 85 74.5C86.5 74 91 85.5 92.5 84.5C94 83.5 92.5 71 94.5 69.5L98 67.5C99.6667 72.6667 103.4 82.5 105 80.5C107 78 102 66 105 64.5C108 63 111 62 112 62C113 62 114 69.5 116 68.5C118 67.5 116 62.5 117.5 61C119 59.5 129.5 57 131 57C132.5 57 134.5 57.5 135 62C135.4 65.6 135.5 73.8333 135.5 77.5C132 77.3333 124.9 77.6 124.5 80C124 83 133.5 81.5 134.5 82.5C135.5 83.5 134 93.5 133 94C132 94.5 124.517 91.4394 124.087 93.2468C123.656 95.0543 132.134 95.5707 131.962 98.6261C131.79 101.681 132.392 107.19 130.585 107.491C128.777 107.792 119.826 103.919 120.644 106.501C121.462 109.083 128.562 110.46 128.821 112.87C129.079 115.28 128.261 118.293 127.099 118.465C125.937 118.637 113.04 113.762 111.435 116.478C109.83 119.195 123.218 122.528 124.087 123.516C124.782 124.307 125.12 124.833 125.202 124.998H105.508C103.8 123.64 99.9392 121.183 98.1612 122.22C96.3832 123.257 96.8442 124.504 97.2969 124.998L44.5 125ZM70.4098 114.74C66.5922 109.783 62.5467 114.968 67.8458 118.672C73.1448 122.375 71.2532 122.973 73.4867 121.805C76.154 120.412 74.2274 119.697 70.4098 114.74ZM72.158 97.4731C71.0754 97.71 72.4572 102.205 74.2712 104.351C75.5913 105.912 77.571 106.946 78.6536 107.217C80.0069 107.555 78.2476 103.258 76.5899 99.3339C74.9322 95.4094 73.2406 97.2363 72.158 97.4731ZM93.7085 87.9666C93.0995 88.3387 92.529 91.4313 93.7085 93.0074C94.8883 94.5839 97.139 94.7531 98.5464 94.4283C100.306 94.0224 97.8698 91.5865 96.7872 89.3198C95.7046 87.0531 94.3175 87.5944 93.7085 87.9666ZM118.192 105.63C119.618 105.364 117.728 102.712 113.715 100.722C113.273 100.479 111.713 99.3033 110.731 99.9925C109.95 100.541 110.019 101.361 109.968 102.314C109.782 105.771 116.766 105.895 118.192 105.63Z" fill="#FFE880"/>
<path fill-rule="evenodd" clip-rule="evenodd" d="M127.834 64.7081C129.363 62.4165 131.151 59.872 132.805 57.4141L133.527 57.9844C131.877 60.4373 130.198 62.9665 128.671 65.2564C120.796 77.06 114.058 87.1601 103.388 100.315C99.2817 105.378 94.4566 110.699 90.3231 115.217C89.9043 115.674 89.4929 116.124 89.0903 116.563C85.5035 120.479 82.711 123.338 81.5 125H80.4414C81.688 123.289 84.772 119.797 88.3339 115.908C88.7432 115.462 89.1609 115.006 89.5854 114.542C93.7197 110.023 98.5262 104.722 102.612 99.685C113.25 86.5688 119.961 76.5089 127.834 64.7081Z" fill="white"/>
</svg>
